# xmcd
# Copyright (C) 1995-1998 Ti Kan
#
# Track frame offsets:
#       150
#       33006
#       44974
#       54637
#       66802
#       94608
#       109736
#       122806
#       136087
#       165237
#       175466
#       191684
#       203497
#       223537
#       235866
#       245997
#
# Disc length: 3553 seconds
#
# Revision: 0
# Processed by: cddbd v1.5.2PL0 Copyright (c) Steve Scherf et al.
# Submitted via: CD-Import v1.0
#
DISCID=e40ddf10
DTITLE=The Fiery Furnaces - Widow City
DYEAR=1900
DGENRE=
TTITLE0=The Piladelphia Grand Jury
TTITLE1=Duplexes Of The Dead
TTITLE2=Automatic Husband
TTITLE3=Ex-Guru
TTITLE4=Clear Signal From Cairo
TTITLE5=My Egyptian Grammar
TTITLE6=The Old Hag Is Sleeping
TTITLE7=Japanese Slippers
TTITLE8=Navy Nurse
TTITLE9=Uncle Charlie
TTITLE10=Richt By Conquest
TTITLE11=Restorative Beer
TTITLE12=Wicker Whatnots
TTITLE13=Cabaret Of The Seven Devils
TTITLE14=Pricked In The Heart
TTITLE15=Widow City
EXTD=
EXTT0=
EXTT1=
EXTT2=
EXTT3=
EXTT4=
EXTT5=
EXTT6=
EXTT7=
EXTT8=
EXTT9=
EXTT10=
EXTT11=
EXTT12=
EXTT13=
EXTT14=
EXTT15=
PLAYORDER=
